{"title":"The Way Back (2010) PPVRIP IFLIX","uid":6223397,"size":1680733894,"categoryP":"video","categoryS":"movies","magnet":"?xt=urn:btih:2d1b236ea178d7646f39a74b9fe7b8c9c47f4b3d&amp;dn=The+Way+Back+%282010%29+PPVRIP+IFLIX&amp;tr=udp%3A%2F%2Ftracker.openbittorrent.com%3A80&amp;tr=udp%3A%2F%2Fopen.demonii.com%3A1337&amp;tr=udp%3A%2F%2Ftracker.coppersurfer.tk%3A6969&amp;tr=udp%3A%2F%2Fexodus.desync.com%3A6969","seeders":0,"leechers":0,"uploader":"DibyaTPB","files":2,"time":1299424014,"description":"Language: English\nSubtitles: English\nFormat                           : AVI\nFormat/Info                      : Audio Video Interleave\nFormat profile                   : OpenDML\nFile size                        : 1.56 GiB\nDuration                         : 2h 11mn\nOverall bit rate                 : 1 694 Kbps\n\nVideo\nID                               : 0\nFormat                           : MPEG-4 Visual\nFormat profile                   : Simple@L3\nFormat settings, BVOP            : No\nFormat settings, QPel            : No\nFormat settings, GMC             : No warppoints\nFormat settings, Matrix          : Default (H.263)\nCodec ID                         : XVID\nCodec ID/Hint                    : XviD\nDuration                         : 2h 11mn\nBit rate                         : 1 549 Kbps\nWidth                            : 720 pixels\nHeight                           : 480 pixels\nDisplay aspect ratio             : 1.500\nFrame rate                       : 29.970 fps\nOriginal frame rate              : 29.000 fps\nStandard                         : NTSC\nResolution                       : 24 bits\nColorimetry                      : 4:2:0\nScan type                        : Progressive\nBits/(Pixel*Frame)               : 0.150\nStream size                      : 1.43 GiB (91%)\nWriting library                  : XviD 1.2.1 (UTC 2008-12-04)\n\nAudio\nID                               : 1\nFormat                           : MPEG Audio\nFormat version                   : Version 1\nFormat profile                   : Layer 3\nFormat_Settings_Mode             : Joint stereo / MS Stereo\nCodec ID                         : 55\nCodec ID/Hint                    : MP3\nDuration                         : 2h 11mn\nBit rate mode                    : Constant\nBit rate                         : 128 Kbps\nChannel(s)                       : 2 channels\nSampling rate                    : 44.1 KHz\nResolution                       : 16 bits\nStream size                      : 121 MiB (8%)\nAlignment                        : Aligned on interleaves\nInterleave, duration             : 26 ms (0.78 video frame)\nWriting library                  : LAME3.98.2\n\n\nRelease notes...\n\nAnother quality release from IFLIX\nMore to come very soon!\n\nVideo source: Ours\nAudio source: Ours\n\nGreetings to all other groups out there. You all do awesome work and we greatly appreciate it.\nIFLIX :-)\n\n[video=]\n &lt;a href=&quot;\nhttp://img130.imageshack.us/img130/6562/wayback.jpg&quot; rel=&quot;nofollow&quot; target=&quot;_NEW&quot;&gt;\nhttp://img130.imageshack.us/img130/6562/wayback.jpg&lt;/a&gt;\n &lt;a href=&quot;\nhttp://img703.imageshack.us/img703/6337/17990591.png&quot; rel=&quot;nofollow&quot; target=&quot;_NEW&quot;&gt;\nhttp://img703.imageshack.us/img703/6337/17990591.png&lt;/a&gt;\n &lt;a href=&quot;\nhttp://img847.imageshack.us/img847/7888/97299670.png&quot; rel=&quot;nofollow&quot; target=&quot;_NEW&quot;&gt;\nhttp://img847.imageshack.us/img847/7888/97299670.png&lt;/a&gt;\n &lt;a href=&quot;\nhttp://img35.imageshack.us/img35/1259/44553345.png&quot; rel=&quot;nofollow&quot; target=&quot;_NEW&quot;&gt;\nhttp://img35.imageshack.us/img35/1259/44553345.png&lt;/a&gt;","torrent":{"xt":"urn:btih:2d1b236ea178d7646f39a74b9fe7b8c9c47f4b3d","amp;dn":"The+Way+Back+%282010%29+PPVRIP+IFLIX","amp;tr":["udp%3A%2F%2Ftracker.openbittorrent.com%3A80","udp%3A%2F%2Fopen.demonii.com%3A1337","udp%3A%2F%2Ftracker.coppersurfer.tk%3A6969","udp%3A%2F%2Fexodus.desync.com%3A6969"],"infoHash":"2d1b236ea178d7646f39a74b9fe7b8c9c47f4b3d","infoHashBuffer":{"type":"Buffer","data":[45,27,35,110,161,120,215,100,111,57,167,75,159,231,184,201,196,127,75,61]},"announce":[],"urlList":[]}}